<svg xmlns="http://www.w3.org/2000/svg" version="1.0" width="800.000000" height="640.000000" viewBox="0 0 800.000000 640.000000" preserveAspectRatio="xMidYMid meet" data-file-name="print-185813356"><g transform="translate(0.000000,640.000000) scale(0.100000,-0.100000)" fill="#000000" stroke="none"><path d="M3844 5846 c-236 -62 -444 -178 -622 -350 -145 -141 -251 -293 -322 -464 l-31 -73 22 -31 c22 -30 24 -30 86 -25 35 2 66 1 68 -3 3 -5 -8 -30 -25 -56 -36 -57 -36 -58 -9 -119 12 -26 17 -51 12 -56 -5 -5 -34 -2 -66 7 l-59 15 -44 -40 c-24 -23 -48 -41 -54 -41 -6 0 -10 -46 -10 -124 0 -141 5 -153 66 -141 l36 6 -6 -33 c-4 -23 -1 -40 9 -53 21 -29 19 -35 -15 -35 -20 0 -34 -8 -45 -23 -14 -21 -13 -30 9 -103 53 -180 142 -352 254 -493 19 -24 21 -24 46 -8 22 15 26 25 26 62 0 25 3 45 6 45 3 0 19 -9 35 -21 29 -20 41 -21 97 -4 19 6 22 4 21 -16 0 -13 -4 -33 -8 -44 -6 -14 -1 -29 15 -51 34 -44 31 -54 -20 -54 -35 0 -47 -5 -60 -25 -9 -13 -16 -28 -16 -32 1 -12 98 -89 182 -145 135 -91 370 -187 497 -204 49 -6 51 -8 51 -38 0 -17 -18 -329 -40 -693 -31 -539 -42 -667 -54 -685 -19 -26 -21 -81 -4 -107 8 -14 7 -87 -6 -307 -9 -158 -20 -291 -24 -295 -4 -4 -43 -17 -87 -28 -78 -20 -111 -42 -100 -68 3 -7 7 -19 10 -26 4 -9 -40 -20 -161 -41 -165 -29 -168 -29 -276 -15 -60 8 -111 11 -114 7 -9 -15 47 -56 86 -63 21 -4 44 -13 51 -21 14 -17 33 -18 57 -3 12 8 50 9 126 3 l108 -9 -73 -96 c-79 -102 -124 -146 -177 -173 -18 -9 -30 -21 -27 -26 9 -15 49 -12 71 5 10 8 37 15 60 15 44 0 64 14 64 45 0 39 39 84 152 174 113 90 113 90 171 91 53 0 61 -3 84 -30 19 -23 33 -30 60 -30 26 0 43 -7 60 -26 18 -19 31 -25 57 -23 19 2 41 -2 49 -9 9 -7 37 -12 64 -11 26 1 62 -3 78 -8 37 -12 93 3 109 30 9 15 6 22 -14 37 -14 11 -38 29 -54 42 -46 35 -69 99 -61 167 7 61 86 273 104 279 22 7 34 -44 21 -90 -6 -24 -16 -68 -20 -98 -5 -30 -11 -67 -15 -81 -5 -20 -2 -28 10 -33 12 -4 16 -2 12 8 -3 8 0 20 8 26 23 19 30 -27 9 -65 -18 -35 -14 -62 11 -71 21 -8 33 5 15 16 -11 7 -11 11 -1 24 8 9 19 16 25 16 30 1 41 20 45 78 1 8 19 29 41 49 38 34 39 38 37 94 -2 55 0 60 35 96 48 49 58 93 29 122 -12 12 -30 21 -42 21 -16 0 -19 4 -14 20 4 12 -2 39 -15 66 -36 73 -159 133 -178 86 -10 -26 -76 -82 -96 -82 -9 0 -16 -8 -16 -19 0 -11 -4 -22 -9 -25 -18 -11 -17 -53 1 -76 23 -28 23 -40 -1 -40 -48 0 -50 -12 149 952 105 507 193 932 196 943 4 15 27 28 87 49 209 72 377 176 535 333 136 136 135 158 -5 128 -116 -25 -336 -30 -461 -11 -325 50 -625 226 -834 489 -21 27 -41 55 -46 63 -4 8 -16 11 -29 8 -16 -5 -28 -23 -43 -70 -12 -35 -25 -64 -29 -64 -5 0 -25 25 -45 55 l-36 55 -65 0 c-42 0 -65 4 -65 11 0 7 16 31 35 55 40 49 41 50 18 120 -9 30 -14 56 -11 60 4 3 34 -4 68 -17 82 -30 89 -21 56 69 -22 63 -40 127 -60 213 -10 43 -33 43 -86 -1 -26 -22 -50 -37 -54 -33 -3 3 -6 30 -6 60 0 53 0 54 -47 84 -27 16 -48 35 -48 41 0 6 18 18 40 27 60 24 63 27 75 87 6 30 15 54 20 52 4 -2 24 -22 43 -45 l35 -43 6 68 c19 211 51 342 125 497 59 125 128 231 203 311 65 69 75 104 31 104 -16 -1 -69 -12 -119 -24z m-446 -594 c25 3 27 0 24 -29 -2 -17 2 -34 7 -38 17 -10 13 -25 -7 -25 -11 0 -27 -9 -37 -20 -22 -25 -32 -25 -40 -2 -3 11 -17 24 -32 31 l-26 12 23 24 c12 13 20 31 17 39 -8 20 3 27 25 15 10 -6 31 -9 46 -7z m354 -1653 c27 -20 33 -20 69 -9 21 7 42 10 46 7 3 -4 1 -23 -5 -43 -10 -33 -8 -40 14 -69 13 -17 24 -35 24 -38 0 -4 -16 -7 -36 -7 -29 0 -43 -7 -70 -37 -36 -40 -43 -38 -60 10 -8 25 -19 34 -49 43 -21 6 -40 15 -42 20 -1 5 13 20 33 33 33 23 35 27 29 68 -6 50 2 54 47 22z m788 -477 c0 -4 -41 -203 -90 -442 -50 -239 -136 -653 -191 -920 -55 -267 -103 -487 -105 -489 -21 -22 -224 309 -224 365 0 15 -5 41 -11 58 -9 24 -3 177 25 661 20 347 39 655 42 685 l5 55 202 1 c142 1 220 6 262 16 73 19 85 20 85 10z m-466 -1899 l28 -42 -72 -80 c-55 -60 -84 -84 -117 -95 l-43 -15 0 42 c0 62 20 415 26 467 l6 45 71 -140 c40 -77 85 -159 101 -182z"></path><path d="M3340 5234 c0 -10 -7 -25 -16 -35 -14 -16 -14 -18 4 -23 11 -4 22 -17 26 -29 l6 -22 15 23 c9 12 25 22 37 22 18 0 19 2 7 17 -8 9 -12 25 -11 36 3 15 0 18 -13 13 -9 -3 -25 -1 -36 4 -15 9 -19 7 -19 -6z"></path><path d="M3718 3571 c3 -34 0 -42 -27 -62 -17 -12 -31 -26 -31 -30 0 -4 16 -10 36 -13 19 -4 37 -12 39 -19 3 -7 9 -25 15 -41 l11 -29 25 36 c20 31 31 37 59 37 41 0 43 5 13 37 -19 20 -20 27 -10 60 6 20 10 38 9 40 -2 1 -20 -3 -40 -9 -33 -10 -41 -9 -67 10 -16 12 -31 22 -32 22 -2 0 -2 -18 0 -39z"></path><path d="M5770 5474 c-19 -26 -38 -52 -41 -57 -4 -5 -42 -9 -84 -8 l-77 2 34 -46 c18 -25 37 -52 43 -60 6 -9 3 -33 -10 -72 -11 -32 -21 -63 -23 -69 -2 -7 23 -4 66 9 l70 20 53 -42 54 -43 3 70 3 70 59 39 c33 21 60 41 60 44 0 3 -27 14 -60 24 -34 10 -64 23 -68 29 -4 6 -16 39 -27 74 l-20 64 -35 -48z"></path><path d="M5210 5336 c0 -25 -6 -38 -20 -46 -24 -13 -18 -30 11 -30 12 0 24 -12 32 -32 l13 -33 18 28 c13 20 27 27 49 27 29 0 30 1 12 20 -13 14 -16 28 -11 55 7 35 7 35 -19 23 -22 -10 -31 -9 -56 6 l-29 17 0 -35z"></path><path d="M4125 5279 c-5 -23 -16 -35 -42 -46 l-36 -14 31 -19 c22 -13 33 -30 38 -54 l6 -36 29 21 c22 15 37 18 65 13 l36 -7 -17 32 c-15 31 -15 34 6 68 l23 36 -42 -5 c-36 -5 -43 -3 -57 18 -21 32 -32 30 -40 -7z"></path><path d="M4630 5170 c0 -21 -8 -38 -22 -50 l-23 -18 28 -7 c20 -5 32 -17 39 -38 l11 -30 19 26 c14 19 29 27 50 27 l29 0 -19 28 c-13 18 -17 33 -11 47 12 32 11 35 -20 24 -23 -8 -35 -7 -55 6 l-26 17 0 -32z"></path><path d="M4990 4976 c0 -54 -1 -57 -40 -84 -21 -15 -39 -30 -40 -33 0 -4 24 -13 52 -21 50 -14 53 -17 67 -61 8 -26 18 -47 21 -47 4 0 19 18 34 40 25 39 28 40 81 40 30 0 55 3 55 6 0 3 -13 23 -30 44 -34 43 -35 52 -15 109 8 22 12 41 10 41 -2 0 -26 -9 -53 -19 -41 -16 -53 -18 -68 -7 -11 7 -31 21 -46 31 l-28 17 0 -56z"></path><path d="M5554 4952 c-5 -24 -16 -38 -42 -51 l-35 -18 32 -22 c25 -18 31 -30 31 -57 l0 -35 33 24 c23 18 38 22 52 17 39 -16 44 -12 33 24 -9 28 -8 40 5 60 23 34 22 36 -18 36 -27 0 -42 7 -60 28 l-24 27 -7 -33z"></path><path d="M2821 4915 c-13 -56 -14 -57 -69 -82 l-55 -24 50 -29 c48 -28 51 -31 55 -80 3 -28 8 -53 12 -57 3 -4 23 10 44 30 l37 36 55 -14 c30 -8 55 -13 57 -11 2 1 -6 26 -18 54 l-21 51 31 52 32 51 -59 -7 -59 -7 -40 47 -40 46 -12 -56z"></path><path d="M3511 4925 c-6 -22 -11 -46 -11 -53 0 -7 -25 -25 -56 -39 l-56 -25 51 -29 51 -29 0 -55 c0 -30 4 -55 8 -55 5 0 19 12 33 26 39 42 54 46 109 30 28 -8 50 -11 50 -7 0 5 -9 29 -20 54 l-21 46 24 38 c13 21 27 44 31 51 6 10 -5 11 -50 6 l-57 -7 -38 44 -37 43 -11 -39z"></path><path d="M4270 4758 c-11 -43 -16 -49 -57 -64 l-45 -17 39 -24 c31 -19 40 -31 48 -69 l10 -47 34 28 c31 27 36 28 74 18 23 -7 43 -10 44 -9 2 1 -5 21 -13 44 -16 39 -16 42 5 77 11 20 21 39 21 42 0 3 -20 2 -44 -1 -41 -7 -45 -5 -74 31 l-30 38 -12 -47z"></path><path d="M4917 4485 c-13 -18 -27 -25 -53 -25 l-35 0 21 -30 c16 -23 19 -34 10 -49 -18 -35 -12 -42 28 -35 28 4 41 2 51 -10 21 -25 31 -19 31 17 0 26 6 36 33 52 l32 19 -37 14 c-27 11 -39 22 -43 43 -8 35 -15 36 -38 4z"></path><path d="M3738 4374 l-46 -34 -52 20 c-29 11 -55 19 -57 16 -2 -2 3 -28 11 -57 9 -29 16 -53 16 -54 0 -1 -16 -22 -35 -46 -19 -24 -35 -47 -35 -51 0 -5 27 -8 60 -8 l59 0 35 -51 c18 -28 36 -47 39 -42 2 4 12 31 21 59 16 50 17 51 77 68 l60 16 -51 41 -52 41 4 59 c2 33 2 59 -1 59 -3 0 -27 -16 -53 -36z"></path><path d="M2780 4321 c0 -20 -7 -34 -20 -41 -24 -13 -18 -30 10 -30 13 0 22 -9 26 -25 7 -30 20 -32 34 -5 6 12 21 20 35 20 29 0 31 7 10 30 -12 13 -13 23 -6 44 12 29 9 31 -20 15 -16 -8 -26 -7 -45 6 -24 15 -24 15 -24 -14z"></path><path d="M2311 4238 l-13 -66 -59 -22 c-32 -13 -59 -25 -59 -29 0 -3 24 -20 53 -36 l52 -31 3 -62 c2 -34 7 -62 13 -62 5 0 29 18 52 39 l43 40 57 -16 c31 -9 59 -14 62 -11 3 3 -4 26 -15 52 -22 51 -25 77 -12 92 5 5 19 27 32 48 l23 39 -64 -7 -64 -8 -46 53 -46 53 -12 -66z"></path><path d="M4390 4125 c0 -30 -3 -55 -7 -55 -5 0 -24 -14 -43 -30 l-35 -28 47 -12 c54 -14 61 -20 77 -72 7 -21 16 -38 19 -38 4 0 18 18 32 40 24 38 27 40 77 40 29 0 53 3 53 6 0 3 -14 23 -31 45 l-30 38 15 52 c13 42 13 50 2 46 -78 -30 -94 -31 -130 -3 -19 14 -37 26 -40 26 -3 0 -6 -25 -6 -55z"></path><path d="M2393 3752 c3 -12 -1 -26 -9 -33 -19 -16 -18 -26 6 -32 11 -3 20 -12 20 -21 0 -20 16 -21 24 -1 3 8 17 15 32 15 25 0 26 1 11 18 -10 10 -14 27 -11 39 5 18 2 21 -14 16 -11 -2 -30 1 -42 7 -21 11 -22 10 -17 -8z"></path><path d="M2788 3743 c-2 -20 -12 -32 -35 -43 -18 -8 -33 -17 -33 -20 0 -3 14 -14 30 -23 24 -15 30 -25 30 -53 l0 -35 29 22 c23 17 37 20 65 15 l35 -7 -14 33 c-12 30 -11 36 7 66 l21 34 -36 -3 c-26 -3 -42 3 -60 19 -30 28 -35 28 -39 -5z"></path><path d="M3180 3653 c0 -31 -6 -43 -32 -65 l-33 -26 39 -7 c33 -7 41 -13 54 -47 l15 -39 18 28 c12 18 33 31 60 38 l41 10 -22 28 c-19 24 -20 32 -11 59 16 46 14 48 -25 32 -33 -14 -38 -13 -70 6 l-34 22 0 -39z"></path><path d="M3170 3531 c0 -5 5 -13 10 -16 6 -3 10 -2 10 4 0 5 -4 13 -10 16 -5 3 -10 2 -10 -4z"></path><path d="M2080 3499 c0 -12 -8 -27 -17 -34 -15 -11 -15 -13 5 -19 11 -4 24 -17 28 -28 6 -20 8 -20 19 -5 7 9 22 17 34 17 22 0 28 14 10 26 -6 3 -8 17 -4 31 5 23 3 25 -16 20 -12 -3 -31 -2 -41 4 -15 8 -18 6 -18 -12z"></path><path d="M2724 3370 c5 -35 2 -41 -24 -60 -39 -28 -38 -36 4 -44 28 -5 37 -13 46 -41 14 -43 24 -44 47 -5 14 25 24 30 55 30 44 0 46 5 17 36 -19 20 -20 28 -11 64 11 44 9 45 -36 29 -27 -9 -36 -8 -61 10 -40 29 -44 27 -37 -19z"></path><path d="M1756 3245 c5 -19 0 -30 -22 -48 l-27 -24 31 -6 c23 -5 33 -13 38 -32 7 -30 20 -32 34 -5 7 13 21 20 40 20 33 0 38 11 14 31 -11 9 -14 22 -9 46 7 36 6 37 -27 24 -17 -6 -29 -5 -43 5 -28 20 -36 17 -29 -11z"></path><path d="M2050 3123 c0 -42 -4 -51 -29 -68 -35 -23 -33 -31 14 -39 29 -6 36 -12 46 -46 7 -22 15 -40 18 -40 3 0 16 16 28 35 19 28 29 34 64 37 l42 3 -27 32 c-22 26 -25 35 -16 58 19 50 15 57 -27 40 -35 -15 -38 -14 -75 10 l-38 25 0 -47z"></path><path d="M3120 3025 c0 -10 -7 -26 -16 -36 -14 -16 -14 -18 4 -23 11 -4 23 -17 26 -29 6 -19 8 -20 16 -6 5 9 21 20 36 23 21 6 24 9 14 21 -7 8 -10 24 -7 36 5 18 2 20 -20 14 -14 -3 -31 -1 -39 6 -11 9 -14 8 -14 -6z"></path><path d="M2530 2930 c0 -13 -7 -32 -17 -42 -15 -17 -15 -18 6 -18 14 0 25 -7 28 -20 6 -24 19 -26 27 -5 3 8 17 15 32 15 25 0 26 1 11 18 -9 10 -14 27 -11 39 5 18 2 20 -20 16 -14 -3 -33 0 -41 7 -13 10 -15 9 -15 -10z"></path><path d="M2080 2725 c0 -14 -4 -25 -10 -25 -5 0 -10 -4 -10 -10 0 -5 6 -10 14 -10 8 0 18 -10 22 -22 6 -20 8 -20 19 -5 7 9 20 17 29 17 17 0 22 15 7 24 -5 3 -7 16 -3 28 4 17 2 20 -12 15 -10 -4 -26 -2 -37 3 -16 9 -19 7 -19 -15z"></path><path d="M1611 2702 c3 -21 -3 -38 -19 -55 l-23 -25 30 -10 c20 -7 33 -20 37 -36 8 -33 17 -33 38 -1 12 18 25 25 47 25 l30 0 -20 26 c-16 20 -18 31 -10 51 12 33 5 39 -27 24 -22 -10 -30 -8 -56 10 l-30 22 3 -31z"></path></g></svg>